<?xml version="1.0" encoding="UTF-8" standalone="no"?>
<!DOCTYPE svg PUBLIC "-//W3C//DTD SVG 1.1//EN"
 "http://www.w3.org/Graphics/SVG/1.1/DTD/svg11.dtd">
<!-- Generated by graphviz version 9.0.0 (0)
 -->
<!-- Title: snakemake_dag Pages: 1 -->
<svg width="314pt" height="188pt"
 viewBox="0.00 0.00 313.88 188.00" xmlns="http://www.w3.org/2000/svg" xmlns:xlink="http://www.w3.org/1999/xlink">
<g id="graph0" class="graph" transform="scale(1 1) rotate(0) translate(4 184)">
<title>snakemake_dag</title>
<polygon fill="white" stroke="none" points="-4,4 -4,-184 309.88,-184 309.88,4 -4,4"/>
<!-- 0 -->
<g id="node1" class="node">
<title>0</title>
<path fill="none" stroke="#59d856" stroke-width="2" d="M174.38,-36C174.38,-36 108.88,-36 108.88,-36 102.88,-36 96.88,-30 96.88,-24 96.88,-24 96.88,-12 96.88,-12 96.88,-6 102.88,0 108.88,0 108.88,0 174.38,0 174.38,0 180.38,0 186.38,-6 186.38,-12 186.38,-12 186.38,-24 186.38,-24 186.38,-30 180.38,-36 174.38,-36"/>
<text text-anchor="middle" x="141.62" y="-14.12" font-family="sans" font-size="10.00">FINAL_TARGET</text>
</g>
<!-- 1 -->
<g id="node2" class="node">
<title>1</title>
<path fill="none" stroke="#d89c56" stroke-width="2" d="M174.75,-108C174.75,-108 108.5,-108 108.5,-108 102.5,-108 96.5,-102 96.5,-96 96.5,-96 96.5,-84 96.5,-84 96.5,-78 102.5,-72 108.5,-72 108.5,-72 174.75,-72 174.75,-72 180.75,-72 186.75,-78 186.75,-84 186.75,-84 186.75,-96 186.75,-96 186.75,-102 180.75,-108 174.75,-108"/>
<text text-anchor="middle" x="141.62" y="-86.12" font-family="sans" font-size="10.00">render_bs4_book</text>
</g>
<!-- 1&#45;&gt;0 -->
<g id="edge1" class="edge">
<title>1&#45;&gt;0</title>
<path fill="none" stroke="grey" stroke-width="2" d="M141.62,-71.34C141.62,-64.75 141.62,-57.08 141.62,-49.67"/>
<polygon fill="grey" stroke="grey" stroke-width="2" points="145.13,-49.93 141.63,-39.93 138.13,-49.93 145.13,-49.93"/>
</g>
<!-- 2 -->
<g id="node3" class="node">
<title>2</title>
<path fill="none" stroke="#afd856" stroke-width="2" d="M63.25,-180C63.25,-180 12,-180 12,-180 6,-180 0,-174 0,-168 0,-168 0,-156 0,-156 0,-150 6,-144 12,-144 12,-144 63.25,-144 63.25,-144 69.25,-144 75.25,-150 75.25,-156 75.25,-156 75.25,-168 75.25,-168 75.25,-174 69.25,-180 63.25,-180"/>
<text text-anchor="middle" x="37.62" y="-158.12" font-family="sans" font-size="10.00">generate_tree</text>
</g>
<!-- 2&#45;&gt;1 -->
<g id="edge3" class="edge">
<title>2&#45;&gt;1</title>
<path fill="none" stroke="grey" stroke-width="2" d="M64.14,-143.15C76.36,-134.93 91.08,-125.02 104.4,-116.06"/>
<polygon fill="grey" stroke="grey" stroke-width="2" points="106.31,-118.99 112.65,-110.5 102.4,-113.18 106.31,-118.99"/>
</g>
<!-- 3 -->
<g id="node4" class="node">
<title>3</title>
<path fill="none" stroke="#9fd856" stroke-width="2" d="M177.75,-180C177.75,-180 105.5,-180 105.5,-180 99.5,-180 93.5,-174 93.5,-168 93.5,-168 93.5,-156 93.5,-156 93.5,-150 99.5,-144 105.5,-144 105.5,-144 177.75,-144 177.75,-144 183.75,-144 189.75,-150 189.75,-156 189.75,-156 189.75,-168 189.75,-168 189.75,-174 183.75,-180 177.75,-180"/>
<text text-anchor="middle" x="141.62" y="-158.12" font-family="sans" font-size="10.00">snakemake_report</text>
</g>
<!-- 3&#45;&gt;1 -->
<g id="edge2" class="edge">
<title>3&#45;&gt;1</title>
<path fill="none" stroke="grey" stroke-width="2" d="M141.62,-143.34C141.62,-136.75 141.62,-129.08 141.62,-121.67"/>
<polygon fill="grey" stroke="grey" stroke-width="2" points="145.13,-121.93 141.63,-111.93 138.13,-121.93 145.13,-121.93"/>
</g>
<!-- 4 -->
<g id="node5" class="node">
<title>4</title>
<path fill="none" stroke="#56d89a" stroke-width="2" d="M293.88,-180C293.88,-180 219.38,-180 219.38,-180 213.38,-180 207.38,-174 207.38,-168 207.38,-168 207.38,-156 207.38,-156 207.38,-150 213.38,-144 219.38,-144 219.38,-144 293.88,-144 293.88,-144 299.88,-144 305.88,-150 305.88,-156 305.88,-156 305.88,-168 305.88,-168 305.88,-174 299.88,-180 293.88,-180"/>
<text text-anchor="middle" x="256.62" y="-158.12" font-family="sans" font-size="10.00">generate_rulegraph</text>
</g>
<!-- 4&#45;&gt;1 -->
<g id="edge4" class="edge">
<title>4&#45;&gt;1</title>
<path fill="none" stroke="grey" stroke-width="2" d="M227.31,-143.15C213.52,-134.76 196.86,-124.62 181.91,-115.52"/>
<polygon fill="grey" stroke="grey" stroke-width="2" points="183.84,-112.6 173.47,-110.39 180.2,-118.58 183.84,-112.6"/>
</g>
</g>
</svg>
