<?xml version="1.0" encoding="UTF-8" standalone="no"?>
<!DOCTYPE svg PUBLIC "-//W3C//DTD SVG 1.1//EN"
 "http://www.w3.org/Graphics/SVG/1.1/DTD/svg11.dtd">
<!-- Generated by graphviz version 9.0.0 (0)
 -->
<!-- Title: snakemake_dag Pages: 1 -->
<svg width="636pt" height="764pt"
 viewBox="0.00 0.00 635.62 764.00" xmlns="http://www.w3.org/2000/svg" xmlns:xlink="http://www.w3.org/1999/xlink">
<g id="graph0" class="graph" transform="scale(1 1) rotate(0) translate(4 760)">
<title>snakemake_dag</title>
<polygon fill="white" stroke="none" points="-4,4 -4,-760 631.62,-760 631.62,4 -4,4"/>
<!-- 0 -->
<g id="node1" class="node">
<title>0</title>
<path fill="none" stroke="#d8ac56" stroke-width="2" d="M289.38,-36C289.38,-36 223.88,-36 223.88,-36 217.88,-36 211.88,-30 211.88,-24 211.88,-24 211.88,-12 211.88,-12 211.88,-6 217.88,0 223.88,0 223.88,0 289.38,0 289.38,0 295.38,0 301.38,-6 301.38,-12 301.38,-12 301.38,-24 301.38,-24 301.38,-30 295.38,-36 289.38,-36"/>
<text text-anchor="middle" x="256.62" y="-14.12" font-family="sans" font-size="10.00">FINAL_TARGET</text>
</g>
<!-- 1 -->
<g id="node2" class="node">
<title>1</title>
<path fill="none" stroke="#568ad8" stroke-width="2" d="M289.75,-108C289.75,-108 223.5,-108 223.5,-108 217.5,-108 211.5,-102 211.5,-96 211.5,-96 211.5,-84 211.5,-84 211.5,-78 217.5,-72 223.5,-72 223.5,-72 289.75,-72 289.75,-72 295.75,-72 301.75,-78 301.75,-84 301.75,-84 301.75,-96 301.75,-96 301.75,-102 295.75,-108 289.75,-108"/>
<text text-anchor="middle" x="256.62" y="-86.12" font-family="sans" font-size="10.00">render_bs4_book</text>
</g>
<!-- 1&#45;&gt;0 -->
<g id="edge1" class="edge">
<title>1&#45;&gt;0</title>
<path fill="none" stroke="grey" stroke-width="2" d="M256.62,-71.34C256.62,-64.75 256.62,-57.08 256.62,-49.67"/>
<polygon fill="grey" stroke="grey" stroke-width="2" points="260.13,-49.93 256.63,-39.93 253.13,-49.93 260.13,-49.93"/>
</g>
<!-- 2 -->
<g id="node3" class="node">
<title>2</title>
<path fill="none" stroke="#569ad8" stroke-width="2" d="M63.25,-180C63.25,-180 12,-180 12,-180 6,-180 0,-174 0,-168 0,-168 0,-156 0,-156 0,-150 6,-144 12,-144 12,-144 63.25,-144 63.25,-144 69.25,-144 75.25,-150 75.25,-156 75.25,-156 75.25,-168 75.25,-168 75.25,-174 69.25,-180 63.25,-180"/>
<text text-anchor="middle" x="37.62" y="-158.12" font-family="sans" font-size="10.00">project_tree</text>
</g>
<!-- 2&#45;&gt;1 -->
<g id="edge4" class="edge">
<title>2&#45;&gt;1</title>
<path fill="none" stroke="grey" stroke-width="2" d="M76.05,-146.93C78.94,-145.92 81.83,-144.94 84.62,-144 122.33,-131.38 165.04,-118.21 198.48,-108.16"/>
<polygon fill="grey" stroke="grey" stroke-width="2" points="199.33,-111.56 207.9,-105.33 197.32,-104.85 199.33,-111.56"/>
</g>
<!-- 3 -->
<g id="node4" class="node">
<title>3</title>
<path fill="none" stroke="#d86656" stroke-width="2" d="M177.75,-180C177.75,-180 105.5,-180 105.5,-180 99.5,-180 93.5,-174 93.5,-168 93.5,-168 93.5,-156 93.5,-156 93.5,-150 99.5,-144 105.5,-144 105.5,-144 177.75,-144 177.75,-144 183.75,-144 189.75,-150 189.75,-156 189.75,-156 189.75,-168 189.75,-168 189.75,-174 183.75,-180 177.75,-180"/>
<text text-anchor="middle" x="141.62" y="-158.12" font-family="sans" font-size="10.00">snakemake_report</text>
</g>
<!-- 3&#45;&gt;1 -->
<g id="edge2" class="edge">
<title>3&#45;&gt;1</title>
<path fill="none" stroke="grey" stroke-width="2" d="M170.94,-143.15C184.73,-134.76 201.39,-124.62 216.34,-115.52"/>
<polygon fill="grey" stroke="grey" stroke-width="2" points="218.05,-118.58 224.78,-110.39 214.41,-112.6 218.05,-118.58"/>
</g>
<!-- 4 -->
<g id="node5" class="node">
<title>4</title>
<path fill="none" stroke="#9fd856" stroke-width="2" d="M293.88,-180C293.88,-180 219.38,-180 219.38,-180 213.38,-180 207.38,-174 207.38,-168 207.38,-168 207.38,-156 207.38,-156 207.38,-150 213.38,-144 219.38,-144 219.38,-144 293.88,-144 293.88,-144 299.88,-144 305.88,-150 305.88,-156 305.88,-156 305.88,-168 305.88,-168 305.88,-174 299.88,-180 293.88,-180"/>
<text text-anchor="middle" x="256.62" y="-158.12" font-family="sans" font-size="10.00">generate_rulegraph</text>
</g>
<!-- 4&#45;&gt;1 -->
<g id="edge5" class="edge">
<title>4&#45;&gt;1</title>
<path fill="none" stroke="grey" stroke-width="2" d="M256.62,-143.34C256.62,-136.75 256.62,-129.08 256.62,-121.67"/>
<polygon fill="grey" stroke="grey" stroke-width="2" points="260.13,-121.93 256.63,-111.93 253.13,-121.93 260.13,-121.93"/>
</g>
<!-- 5 -->
<g id="node6" class="node">
<title>5</title>
<path fill="none" stroke="#d6d856" stroke-width="2" d="M431,-180C431,-180 336.25,-180 336.25,-180 330.25,-180 324.25,-174 324.25,-168 324.25,-168 324.25,-156 324.25,-156 324.25,-150 330.25,-144 336.25,-144 336.25,-144 431,-144 431,-144 437,-144 443,-150 443,-156 443,-156 443,-168 443,-168 443,-174 437,-180 431,-180"/>
<text text-anchor="middle" x="383.62" y="-158.12" font-family="sans" font-size="10.00">alpha_diversity_metrics</text>
</g>
<!-- 5&#45;&gt;1 -->
<g id="edge3" class="edge">
<title>5&#45;&gt;1</title>
<path fill="none" stroke="grey" stroke-width="2" d="M351.25,-143.15C335.72,-134.6 316.9,-124.22 300.15,-114.99"/>
<polygon fill="grey" stroke="grey" stroke-width="2" points="302.04,-112.04 291.59,-110.27 298.66,-118.17 302.04,-112.04"/>
</g>
<!-- 6 -->
<g id="node7" class="node">
<title>6</title>
<path fill="none" stroke="#56d873" stroke-width="2" d="M418.12,-540C418.12,-540 327.12,-540 327.12,-540 321.12,-540 315.12,-534 315.12,-528 315.12,-528 315.12,-516 315.12,-516 315.12,-510 321.12,-504 327.12,-504 327.12,-504 418.12,-504 418.12,-504 424.12,-504 430.12,-510 430.12,-516 430.12,-516 430.12,-528 430.12,-528 430.12,-534 424.12,-540 418.12,-540"/>
<text text-anchor="middle" x="372.62" y="-518.12" font-family="sans" font-size="10.00">qiime2_dada2_denoise</text>
</g>
<!-- 6&#45;&gt;5 -->
<g id="edge9" class="edge">
<title>6&#45;&gt;5</title>
<path fill="none" stroke="grey" stroke-width="2" d="M342.92,-503.21C329.54,-494.03 314.36,-481.85 303.62,-468 277.27,-434.01 265.62,-422.01 265.62,-379 265.62,-379 265.62,-379 265.62,-305 265.62,-262.97 271.13,-248.64 297.62,-216 306.86,-204.63 319.22,-195.03 331.69,-187.27"/>
<polygon fill="grey" stroke="grey" stroke-width="2" points="333.1,-190.49 339.98,-182.44 329.58,-184.45 333.1,-190.49"/>
</g>
<!-- 13 -->
<g id="node14" class="node">
<title>13</title>
<path fill="none" stroke="#d8cb56" stroke-width="2" d="M420.38,-468C420.38,-468 324.88,-468 324.88,-468 318.88,-468 312.88,-462 312.88,-456 312.88,-456 312.88,-444 312.88,-444 312.88,-438 318.88,-432 324.88,-432 324.88,-432 420.38,-432 420.38,-432 426.38,-432 432.38,-438 432.38,-444 432.38,-444 432.38,-456 432.38,-456 432.38,-462 426.38,-468 420.38,-468"/>
<text text-anchor="middle" x="372.62" y="-446.12" font-family="sans" font-size="10.00">qiime2_mafft_alignment</text>
</g>
<!-- 6&#45;&gt;13 -->
<g id="edge16" class="edge">
<title>6&#45;&gt;13</title>
<path fill="none" stroke="grey" stroke-width="2" d="M372.62,-503.34C372.62,-496.75 372.62,-489.08 372.62,-481.67"/>
<polygon fill="grey" stroke="grey" stroke-width="2" points="376.13,-481.93 372.63,-471.93 369.13,-481.93 376.13,-481.93"/>
</g>
<!-- 17 -->
<g id="node18" class="node">
<title>17</title>
<path fill="none" stroke="#8fd856" stroke-width="2" d="M569.75,-180C569.75,-180 479.5,-180 479.5,-180 473.5,-180 467.5,-174 467.5,-168 467.5,-168 467.5,-156 467.5,-156 467.5,-150 473.5,-144 479.5,-144 479.5,-144 569.75,-144 569.75,-144 575.75,-144 581.75,-150 581.75,-156 581.75,-156 581.75,-168 581.75,-168 581.75,-174 575.75,-180 569.75,-180"/>
<text text-anchor="middle" x="524.62" y="-158.12" font-family="sans" font-size="10.00">beta_diversity_metrics</text>
</g>
<!-- 6&#45;&gt;17 -->
<g id="edge21" class="edge">
<title>6&#45;&gt;17</title>
<path fill="none" stroke="grey" stroke-width="2" d="M430.81,-514.35C506.07,-502.14 627.62,-468.56 627.62,-379 627.62,-379 627.62,-379 627.62,-305 627.62,-262.33 617.21,-250.15 591.62,-216 583.97,-205.78 573.89,-196.44 563.87,-188.54"/>
<polygon fill="grey" stroke="grey" stroke-width="2" points="566.1,-185.84 555.99,-182.67 561.92,-191.45 566.1,-185.84"/>
</g>
<!-- 7 -->
<g id="node8" class="node">
<title>7</title>
<path fill="none" stroke="#567bd8" stroke-width="2" d="M436.88,-612C436.88,-612 308.38,-612 308.38,-612 302.38,-612 296.38,-606 296.38,-600 296.38,-600 296.38,-588 296.38,-588 296.38,-582 302.38,-576 308.38,-576 308.38,-576 436.88,-576 436.88,-576 442.88,-576 448.88,-582 448.88,-588 448.88,-588 448.88,-600 448.88,-600 448.88,-606 442.88,-612 436.88,-612"/>
<text text-anchor="middle" x="372.62" y="-590.12" font-family="sans" font-size="10.00">qiime2_demux_qza_subsample</text>
</g>
<!-- 7&#45;&gt;6 -->
<g id="edge10" class="edge">
<title>7&#45;&gt;6</title>
<path fill="none" stroke="grey" stroke-width="2" d="M372.62,-575.34C372.62,-568.75 372.62,-561.08 372.62,-553.67"/>
<polygon fill="grey" stroke="grey" stroke-width="2" points="376.13,-553.93 372.63,-543.93 369.13,-553.93 376.13,-553.93"/>
</g>
<!-- 8 -->
<g id="node9" class="node">
<title>8</title>
<path fill="none" stroke="#d8bc56" stroke-width="2" d="M428.25,-684C428.25,-684 317,-684 317,-684 311,-684 305,-678 305,-672 305,-672 305,-660 305,-660 305,-654 311,-648 317,-648 317,-648 428.25,-648 428.25,-648 434.25,-648 440.25,-654 440.25,-660 440.25,-660 440.25,-672 440.25,-672 440.25,-678 434.25,-684 428.25,-684"/>
<text text-anchor="middle" x="372.62" y="-662.12" font-family="sans" font-size="10.00">qiime2_demux_qza_artifact</text>
</g>
<!-- 8&#45;&gt;7 -->
<g id="edge11" class="edge">
<title>8&#45;&gt;7</title>
<path fill="none" stroke="grey" stroke-width="2" d="M372.62,-647.34C372.62,-640.75 372.62,-633.08 372.62,-625.67"/>
<polygon fill="grey" stroke="grey" stroke-width="2" points="376.13,-625.93 372.63,-615.93 369.13,-625.93 376.13,-625.93"/>
</g>
<!-- 9 -->
<g id="node10" class="node">
<title>9</title>
<path fill="none" stroke="#56d85b" stroke-width="2" d="M412.5,-756C412.5,-756 332.75,-756 332.75,-756 326.75,-756 320.75,-750 320.75,-744 320.75,-744 320.75,-732 320.75,-732 320.75,-726 326.75,-720 332.75,-720 332.75,-720 412.5,-720 412.5,-720 418.5,-720 424.5,-726 424.5,-732 424.5,-732 424.5,-744 424.5,-744 424.5,-750 418.5,-756 412.5,-756"/>
<text text-anchor="middle" x="372.62" y="-734.12" font-family="sans" font-size="10.00">import_manifest_file</text>
</g>
<!-- 9&#45;&gt;8 -->
<g id="edge12" class="edge">
<title>9&#45;&gt;8</title>
<path fill="none" stroke="grey" stroke-width="2" d="M372.62,-719.34C372.62,-712.75 372.62,-705.08 372.62,-697.67"/>
<polygon fill="grey" stroke="grey" stroke-width="2" points="376.13,-697.93 372.63,-687.93 369.13,-697.93 376.13,-697.93"/>
</g>
<!-- 10 -->
<g id="node11" class="node">
<title>10</title>
<path fill="none" stroke="#56d8c1" stroke-width="2" d="M442.62,-252C442.62,-252 318.62,-252 318.62,-252 312.62,-252 306.62,-246 306.62,-240 306.62,-240 306.62,-228 306.62,-228 306.62,-222 312.62,-216 318.62,-216 318.62,-216 442.62,-216 442.62,-216 448.62,-216 454.62,-222 454.62,-228 454.62,-228 454.62,-240 454.62,-240 454.62,-246 448.62,-252 442.62,-252"/>
<text text-anchor="middle" x="380.62" y="-230.12" font-family="sans" font-size="10.00">qiime2_phylogeny_rooted_tree</text>
</g>
<!-- 10&#45;&gt;5 -->
<g id="edge7" class="edge">
<title>10&#45;&gt;5</title>
<path fill="none" stroke="grey" stroke-width="2" d="M381.38,-215.34C381.66,-208.75 381.99,-201.08 382.31,-193.67"/>
<polygon fill="grey" stroke="grey" stroke-width="2" points="385.8,-194.07 382.73,-183.93 378.8,-193.77 385.8,-194.07"/>
</g>
<!-- 10&#45;&gt;17 -->
<g id="edge19" class="edge">
<title>10&#45;&gt;17</title>
<path fill="none" stroke="grey" stroke-width="2" d="M417.33,-215.15C435.21,-206.47 456.93,-195.91 476.15,-186.56"/>
<polygon fill="grey" stroke="grey" stroke-width="2" points="477.55,-189.78 485.01,-182.26 474.49,-183.48 477.55,-189.78"/>
</g>
<!-- 11 -->
<g id="node12" class="node">
<title>11</title>
<path fill="none" stroke="#d85656" stroke-width="2" d="M439.88,-324C439.88,-324 305.38,-324 305.38,-324 299.38,-324 293.38,-318 293.38,-312 293.38,-312 293.38,-300 293.38,-300 293.38,-294 299.38,-288 305.38,-288 305.38,-288 439.88,-288 439.88,-288 445.88,-288 451.88,-294 451.88,-300 451.88,-300 451.88,-312 451.88,-312 451.88,-318 445.88,-324 439.88,-324"/>
<text text-anchor="middle" x="372.62" y="-302.12" font-family="sans" font-size="10.00">qiime2_phylogeny_unrooted_tree</text>
</g>
<!-- 11&#45;&gt;10 -->
<g id="edge13" class="edge">
<title>11&#45;&gt;10</title>
<path fill="none" stroke="grey" stroke-width="2" d="M374.64,-287.34C375.4,-280.75 376.27,-273.08 377.12,-265.67"/>
<polygon fill="grey" stroke="grey" stroke-width="2" points="380.58,-266.24 378.24,-255.91 373.62,-265.45 380.58,-266.24"/>
</g>
<!-- 12 -->
<g id="node13" class="node">
<title>12</title>
<path fill="none" stroke="#d87556" stroke-width="2" d="M421.12,-396C421.12,-396 324.12,-396 324.12,-396 318.12,-396 312.12,-390 312.12,-384 312.12,-384 312.12,-372 312.12,-372 312.12,-366 318.12,-360 324.12,-360 324.12,-360 421.12,-360 421.12,-360 427.12,-360 433.12,-366 433.12,-372 433.12,-372 433.12,-384 433.12,-384 433.12,-390 427.12,-396 421.12,-396"/>
<text text-anchor="middle" x="372.62" y="-374.12" font-family="sans" font-size="10.00">qiime2_mask_alignment</text>
</g>
<!-- 12&#45;&gt;11 -->
<g id="edge14" class="edge">
<title>12&#45;&gt;11</title>
<path fill="none" stroke="grey" stroke-width="2" d="M372.62,-359.34C372.62,-352.75 372.62,-345.08 372.62,-337.67"/>
<polygon fill="grey" stroke="grey" stroke-width="2" points="376.13,-337.93 372.63,-327.93 369.13,-337.93 376.13,-337.93"/>
</g>
<!-- 13&#45;&gt;12 -->
<g id="edge15" class="edge">
<title>13&#45;&gt;12</title>
<path fill="none" stroke="grey" stroke-width="2" d="M372.62,-431.34C372.62,-424.75 372.62,-417.08 372.62,-409.67"/>
<polygon fill="grey" stroke="grey" stroke-width="2" points="376.13,-409.93 372.63,-399.93 369.13,-409.93 376.13,-409.93"/>
</g>
<!-- 14 -->
<g id="node15" class="node">
<title>14</title>
<path fill="none" stroke="#56d8a2" stroke-width="2" d="M570.5,-252C570.5,-252 484.75,-252 484.75,-252 478.75,-252 472.75,-246 472.75,-240 472.75,-240 472.75,-228 472.75,-228 472.75,-222 478.75,-216 484.75,-216 484.75,-216 570.5,-216 570.5,-216 576.5,-216 582.5,-222 582.5,-228 582.5,-228 582.5,-240 582.5,-240 582.5,-246 576.5,-252 570.5,-252"/>
<text text-anchor="middle" x="527.62" y="-230.12" font-family="sans" font-size="10.00">qzv_metadata_to_tsv</text>
</g>
<!-- 14&#45;&gt;5 -->
<g id="edge8" class="edge">
<title>14&#45;&gt;5</title>
<path fill="none" stroke="grey" stroke-width="2" d="M490.92,-215.15C473.04,-206.47 451.32,-195.91 432.1,-186.56"/>
<polygon fill="grey" stroke="grey" stroke-width="2" points="433.76,-183.48 423.24,-182.26 430.7,-189.78 433.76,-183.48"/>
</g>
<!-- 14&#45;&gt;17 -->
<g id="edge20" class="edge">
<title>14&#45;&gt;17</title>
<path fill="none" stroke="grey" stroke-width="2" d="M526.87,-215.34C526.59,-208.75 526.26,-201.08 525.94,-193.67"/>
<polygon fill="grey" stroke="grey" stroke-width="2" points="529.45,-193.77 525.52,-183.93 522.45,-194.07 529.45,-193.77"/>
</g>
<!-- 15 -->
<g id="node16" class="node">
<title>15</title>
<path fill="none" stroke="#5663d8" stroke-width="2" d="M587.25,-324C587.25,-324 482,-324 482,-324 476,-324 470,-318 470,-312 470,-312 470,-300 470,-300 470,-294 476,-288 482,-288 482,-288 587.25,-288 587.25,-288 593.25,-288 599.25,-294 599.25,-300 599.25,-300 599.25,-312 599.25,-312 599.25,-318 593.25,-324 587.25,-324"/>
<text text-anchor="middle" x="534.62" y="-302.12" font-family="sans" font-size="10.00">qiime2_validate_metadata</text>
</g>
<!-- 15&#45;&gt;14 -->
<g id="edge17" class="edge">
<title>15&#45;&gt;14</title>
<path fill="none" stroke="grey" stroke-width="2" d="M532.86,-287.34C532.2,-280.75 531.43,-273.08 530.69,-265.67"/>
<polygon fill="grey" stroke="grey" stroke-width="2" points="534.19,-265.52 529.72,-255.91 527.23,-266.21 534.19,-265.52"/>
</g>
<!-- 16 -->
<g id="node17" class="node">
<title>16</title>
<path fill="none" stroke="#56a9d8" stroke-width="2" d="M567,-396C567,-396 502.25,-396 502.25,-396 496.25,-396 490.25,-390 490.25,-384 490.25,-384 490.25,-372 490.25,-372 490.25,-366 496.25,-360 502.25,-360 502.25,-360 567,-360 567,-360 573,-360 579,-366 579,-372 579,-372 579,-384 579,-384 579,-390 573,-396 567,-396"/>
<text text-anchor="middle" x="534.62" y="-374.12" font-family="sans" font-size="10.00">import_metadata</text>
</g>
<!-- 16&#45;&gt;15 -->
<g id="edge18" class="edge">
<title>16&#45;&gt;15</title>
<path fill="none" stroke="grey" stroke-width="2" d="M534.62,-359.34C534.62,-352.75 534.62,-345.08 534.62,-337.67"/>
<polygon fill="grey" stroke="grey" stroke-width="2" points="538.13,-337.93 534.63,-327.93 531.13,-337.93 538.13,-337.93"/>
</g>
<!-- 17&#45;&gt;1 -->
<g id="edge6" class="edge">
<title>17&#45;&gt;1</title>
<path fill="none" stroke="grey" stroke-width="2" d="M466.8,-145.9C421.89,-134.17 359.88,-117.97 314.86,-106.21"/>
<polygon fill="grey" stroke="grey" stroke-width="2" points="315.84,-102.85 305.28,-103.71 314.07,-109.62 315.84,-102.85"/>
</g>
</g>
</svg>
