<?xml version="1.0" encoding="UTF-8" standalone="no"?>
<!DOCTYPE svg PUBLIC "-//W3C//DTD SVG 1.1//EN"
 "http://www.w3.org/Graphics/SVG/1.1/DTD/svg11.dtd">
<!-- Generated by graphviz version 9.0.0 (0)
 -->
<!-- Title: snakemake_dag Pages: 1 -->
<svg width="621pt" height="764pt"
 viewBox="0.00 0.00 620.62 764.00" xmlns="http://www.w3.org/2000/svg" xmlns:xlink="http://www.w3.org/1999/xlink">
<g id="graph0" class="graph" transform="scale(1 1) rotate(0) translate(4 760)">
<title>snakemake_dag</title>
<polygon fill="white" stroke="none" points="-4,4 -4,-760 616.62,-760 616.62,4 -4,4"/>
<!-- 0 -->
<g id="node1" class="node">
<title>0</title>
<path fill="none" stroke="#afd856" stroke-width="2" d="M289.38,-36C289.38,-36 223.88,-36 223.88,-36 217.88,-36 211.88,-30 211.88,-24 211.88,-24 211.88,-12 211.88,-12 211.88,-6 217.88,0 223.88,0 223.88,0 289.38,0 289.38,0 295.38,0 301.38,-6 301.38,-12 301.38,-12 301.38,-24 301.38,-24 301.38,-30 295.38,-36 289.38,-36"/>
<text text-anchor="middle" x="256.62" y="-14.12" font-family="sans" font-size="10.00">FINAL_TARGET</text>
</g>
<!-- 1 -->
<g id="node2" class="node">
<title>1</title>
<path fill="none" stroke="#d86656" stroke-width="2" d="M289.75,-108C289.75,-108 223.5,-108 223.5,-108 217.5,-108 211.5,-102 211.5,-96 211.5,-96 211.5,-84 211.5,-84 211.5,-78 217.5,-72 223.5,-72 223.5,-72 289.75,-72 289.75,-72 295.75,-72 301.75,-78 301.75,-84 301.75,-84 301.75,-96 301.75,-96 301.75,-102 295.75,-108 289.75,-108"/>
<text text-anchor="middle" x="256.62" y="-86.12" font-family="sans" font-size="10.00">render_bs4_book</text>
</g>
<!-- 1&#45;&gt;0 -->
<g id="edge1" class="edge">
<title>1&#45;&gt;0</title>
<path fill="none" stroke="grey" stroke-width="2" d="M256.62,-71.34C256.62,-64.75 256.62,-57.08 256.62,-49.67"/>
<polygon fill="grey" stroke="grey" stroke-width="2" points="260.13,-49.93 256.63,-39.93 253.13,-49.93 260.13,-49.93"/>
</g>
<!-- 2 -->
<g id="node3" class="node">
<title>2</title>
<path fill="none" stroke="#56d8c1" stroke-width="2" d="M63.25,-180C63.25,-180 12,-180 12,-180 6,-180 0,-174 0,-168 0,-168 0,-156 0,-156 0,-150 6,-144 12,-144 12,-144 63.25,-144 63.25,-144 69.25,-144 75.25,-150 75.25,-156 75.25,-156 75.25,-168 75.25,-168 75.25,-174 69.25,-180 63.25,-180"/>
<text text-anchor="middle" x="37.62" y="-158.12" font-family="sans" font-size="10.00">generate_tree</text>
</g>
<!-- 2&#45;&gt;1 -->
<g id="edge6" class="edge">
<title>2&#45;&gt;1</title>
<path fill="none" stroke="grey" stroke-width="2" d="M76.05,-146.93C78.94,-145.92 81.83,-144.94 84.62,-144 122.33,-131.38 165.04,-118.21 198.48,-108.16"/>
<polygon fill="grey" stroke="grey" stroke-width="2" points="199.33,-111.56 207.9,-105.33 197.32,-104.85 199.33,-111.56"/>
</g>
<!-- 3 -->
<g id="node4" class="node">
<title>3</title>
<path fill="none" stroke="#56a9d8" stroke-width="2" d="M177.75,-180C177.75,-180 105.5,-180 105.5,-180 99.5,-180 93.5,-174 93.5,-168 93.5,-168 93.5,-156 93.5,-156 93.5,-150 99.5,-144 105.5,-144 105.5,-144 177.75,-144 177.75,-144 183.75,-144 189.75,-150 189.75,-156 189.75,-156 189.75,-168 189.75,-168 189.75,-174 183.75,-180 177.75,-180"/>
<text text-anchor="middle" x="141.62" y="-158.12" font-family="sans" font-size="10.00">snakemake_report</text>
</g>
<!-- 3&#45;&gt;1 -->
<g id="edge4" class="edge">
<title>3&#45;&gt;1</title>
<path fill="none" stroke="grey" stroke-width="2" d="M170.94,-143.15C184.73,-134.76 201.39,-124.62 216.34,-115.52"/>
<polygon fill="grey" stroke="grey" stroke-width="2" points="218.05,-118.58 224.78,-110.39 214.41,-112.6 218.05,-118.58"/>
</g>
<!-- 4 -->
<g id="node5" class="node">
<title>4</title>
<path fill="none" stroke="#56d8a9" stroke-width="2" d="M293.88,-180C293.88,-180 219.38,-180 219.38,-180 213.38,-180 207.38,-174 207.38,-168 207.38,-168 207.38,-156 207.38,-156 207.38,-150 213.38,-144 219.38,-144 219.38,-144 293.88,-144 293.88,-144 299.88,-144 305.88,-150 305.88,-156 305.88,-156 305.88,-168 305.88,-168 305.88,-174 299.88,-180 293.88,-180"/>
<text text-anchor="middle" x="256.62" y="-158.12" font-family="sans" font-size="10.00">generate_rulegraph</text>
</g>
<!-- 4&#45;&gt;1 -->
<g id="edge5" class="edge">
<title>4&#45;&gt;1</title>
<path fill="none" stroke="grey" stroke-width="2" d="M256.62,-143.34C256.62,-136.75 256.62,-129.08 256.62,-121.67"/>
<polygon fill="grey" stroke="grey" stroke-width="2" points="260.13,-121.93 256.63,-111.93 253.13,-121.93 260.13,-121.93"/>
</g>
<!-- 5 -->
<g id="node6" class="node">
<title>5</title>
<path fill="none" stroke="#d89c56" stroke-width="2" d="M407.38,-180C407.38,-180 335.88,-180 335.88,-180 329.88,-180 323.88,-174 323.88,-168 323.88,-168 323.88,-156 323.88,-156 323.88,-150 329.88,-144 335.88,-144 335.88,-144 407.38,-144 407.38,-144 413.38,-144 419.38,-150 419.38,-156 419.38,-156 419.38,-168 419.38,-168 419.38,-174 413.38,-180 407.38,-180"/>
<text text-anchor="middle" x="371.62" y="-158.12" font-family="sans" font-size="10.00">qiime2_rarefaction</text>
</g>
<!-- 5&#45;&gt;1 -->
<g id="edge2" class="edge">
<title>5&#45;&gt;1</title>
<path fill="none" stroke="grey" stroke-width="2" d="M342.31,-143.15C328.52,-134.76 311.86,-124.62 296.91,-115.52"/>
<polygon fill="grey" stroke="grey" stroke-width="2" points="298.84,-112.6 288.47,-110.39 295.2,-118.58 298.84,-112.6"/>
</g>
<!-- 6 -->
<g id="node7" class="node">
<title>6</title>
<path fill="none" stroke="#88d856" stroke-width="2" d="M403.12,-540C403.12,-540 312.12,-540 312.12,-540 306.12,-540 300.12,-534 300.12,-528 300.12,-528 300.12,-516 300.12,-516 300.12,-510 306.12,-504 312.12,-504 312.12,-504 403.12,-504 403.12,-504 409.12,-504 415.12,-510 415.12,-516 415.12,-516 415.12,-528 415.12,-528 415.12,-534 409.12,-540 403.12,-540"/>
<text text-anchor="middle" x="357.62" y="-518.12" font-family="sans" font-size="10.00">qiime2_dada2_denoise</text>
</g>
<!-- 6&#45;&gt;5 -->
<g id="edge9" class="edge">
<title>6&#45;&gt;5</title>
<path fill="none" stroke="grey" stroke-width="2" d="M327.92,-503.21C314.54,-494.03 299.36,-481.85 288.62,-468 262.27,-434.01 250.62,-422.01 250.62,-379 250.62,-379 250.62,-379 250.62,-305 250.62,-262.97 255.89,-248.43 282.62,-216 292.09,-204.52 304.74,-194.92 317.52,-187.19"/>
<polygon fill="grey" stroke="grey" stroke-width="2" points="319.09,-190.32 326.07,-182.36 315.65,-184.23 319.09,-190.32"/>
</g>
<!-- 13 -->
<g id="node14" class="node">
<title>13</title>
<path fill="none" stroke="#d87556" stroke-width="2" d="M405.38,-468C405.38,-468 309.88,-468 309.88,-468 303.88,-468 297.88,-462 297.88,-456 297.88,-456 297.88,-444 297.88,-444 297.88,-438 303.88,-432 309.88,-432 309.88,-432 405.38,-432 405.38,-432 411.38,-432 417.38,-438 417.38,-444 417.38,-444 417.38,-456 417.38,-456 417.38,-462 411.38,-468 405.38,-468"/>
<text text-anchor="middle" x="357.62" y="-446.12" font-family="sans" font-size="10.00">qiime2_mafft_alignment</text>
</g>
<!-- 6&#45;&gt;13 -->
<g id="edge16" class="edge">
<title>6&#45;&gt;13</title>
<path fill="none" stroke="grey" stroke-width="2" d="M357.62,-503.34C357.62,-496.75 357.62,-489.08 357.62,-481.67"/>
<polygon fill="grey" stroke="grey" stroke-width="2" points="361.13,-481.93 357.63,-471.93 354.13,-481.93 361.13,-481.93"/>
</g>
<!-- 17 -->
<g id="node18" class="node">
<title>17</title>
<path fill="none" stroke="#d8d356" stroke-width="2" d="M555,-180C555,-180 460.25,-180 460.25,-180 454.25,-180 448.25,-174 448.25,-168 448.25,-168 448.25,-156 448.25,-156 448.25,-150 454.25,-144 460.25,-144 460.25,-144 555,-144 555,-144 561,-144 567,-150 567,-156 567,-156 567,-168 567,-168 567,-174 561,-180 555,-180"/>
<text text-anchor="middle" x="507.62" y="-158.12" font-family="sans" font-size="10.00">alpha_diversity_metrics</text>
</g>
<!-- 6&#45;&gt;17 -->
<g id="edge21" class="edge">
<title>6&#45;&gt;17</title>
<path fill="none" stroke="grey" stroke-width="2" d="M415.81,-514.35C491.07,-502.14 612.62,-468.56 612.62,-379 612.62,-379 612.62,-379 612.62,-305 612.62,-262.33 602.45,-249.97 576.62,-216 568.82,-205.74 558.55,-196.43 548.33,-188.57"/>
<polygon fill="grey" stroke="grey" stroke-width="2" points="550.4,-185.75 540.25,-182.72 546.29,-191.42 550.4,-185.75"/>
</g>
<!-- 7 -->
<g id="node8" class="node">
<title>7</title>
<path fill="none" stroke="#567bd8" stroke-width="2" d="M421.88,-612C421.88,-612 293.38,-612 293.38,-612 287.38,-612 281.38,-606 281.38,-600 281.38,-600 281.38,-588 281.38,-588 281.38,-582 287.38,-576 293.38,-576 293.38,-576 421.88,-576 421.88,-576 427.88,-576 433.88,-582 433.88,-588 433.88,-588 433.88,-600 433.88,-600 433.88,-606 427.88,-612 421.88,-612"/>
<text text-anchor="middle" x="357.62" y="-590.12" font-family="sans" font-size="10.00">qiime2_demux_qza_subsample</text>
</g>
<!-- 7&#45;&gt;6 -->
<g id="edge10" class="edge">
<title>7&#45;&gt;6</title>
<path fill="none" stroke="grey" stroke-width="2" d="M357.62,-575.34C357.62,-568.75 357.62,-561.08 357.62,-553.67"/>
<polygon fill="grey" stroke="grey" stroke-width="2" points="361.13,-553.93 357.63,-543.93 354.13,-553.93 361.13,-553.93"/>
</g>
<!-- 8 -->
<g id="node9" class="node">
<title>8</title>
<path fill="none" stroke="#56d8d0" stroke-width="2" d="M413.25,-684C413.25,-684 302,-684 302,-684 296,-684 290,-678 290,-672 290,-672 290,-660 290,-660 290,-654 296,-648 302,-648 302,-648 413.25,-648 413.25,-648 419.25,-648 425.25,-654 425.25,-660 425.25,-660 425.25,-672 425.25,-672 425.25,-678 419.25,-684 413.25,-684"/>
<text text-anchor="middle" x="357.62" y="-662.12" font-family="sans" font-size="10.00">qiime2_demux_qza_artifact</text>
</g>
<!-- 8&#45;&gt;7 -->
<g id="edge11" class="edge">
<title>8&#45;&gt;7</title>
<path fill="none" stroke="grey" stroke-width="2" d="M357.62,-647.34C357.62,-640.75 357.62,-633.08 357.62,-625.67"/>
<polygon fill="grey" stroke="grey" stroke-width="2" points="361.13,-625.93 357.63,-615.93 354.13,-625.93 361.13,-625.93"/>
</g>
<!-- 9 -->
<g id="node10" class="node">
<title>9</title>
<path fill="none" stroke="#56d89a" stroke-width="2" d="M397.5,-756C397.5,-756 317.75,-756 317.75,-756 311.75,-756 305.75,-750 305.75,-744 305.75,-744 305.75,-732 305.75,-732 305.75,-726 311.75,-720 317.75,-720 317.75,-720 397.5,-720 397.5,-720 403.5,-720 409.5,-726 409.5,-732 409.5,-732 409.5,-744 409.5,-744 409.5,-750 403.5,-756 397.5,-756"/>
<text text-anchor="middle" x="357.62" y="-734.12" font-family="sans" font-size="10.00">import_manifest_file</text>
</g>
<!-- 9&#45;&gt;8 -->
<g id="edge12" class="edge">
<title>9&#45;&gt;8</title>
<path fill="none" stroke="grey" stroke-width="2" d="M357.62,-719.34C357.62,-712.75 357.62,-705.08 357.62,-697.67"/>
<polygon fill="grey" stroke="grey" stroke-width="2" points="361.13,-697.93 357.63,-687.93 354.13,-697.93 361.13,-697.93"/>
</g>
<!-- 10 -->
<g id="node11" class="node">
<title>10</title>
<path fill="none" stroke="#56d87b" stroke-width="2" d="M427.62,-252C427.62,-252 303.62,-252 303.62,-252 297.62,-252 291.62,-246 291.62,-240 291.62,-240 291.62,-228 291.62,-228 291.62,-222 297.62,-216 303.62,-216 303.62,-216 427.62,-216 427.62,-216 433.62,-216 439.62,-222 439.62,-228 439.62,-228 439.62,-240 439.62,-240 439.62,-246 433.62,-252 427.62,-252"/>
<text text-anchor="middle" x="365.62" y="-230.12" font-family="sans" font-size="10.00">qiime2_phylogeny_rooted_tree</text>
</g>
<!-- 10&#45;&gt;5 -->
<g id="edge7" class="edge">
<title>10&#45;&gt;5</title>
<path fill="none" stroke="grey" stroke-width="2" d="M367.14,-215.34C367.7,-208.75 368.36,-201.08 369,-193.67"/>
<polygon fill="grey" stroke="grey" stroke-width="2" points="372.47,-194.18 369.83,-183.92 365.49,-193.58 372.47,-194.18"/>
</g>
<!-- 10&#45;&gt;17 -->
<g id="edge19" class="edge">
<title>10&#45;&gt;17</title>
<path fill="none" stroke="grey" stroke-width="2" d="M401.83,-215.15C419.52,-206.43 441.04,-195.82 460.04,-186.46"/>
<polygon fill="grey" stroke="grey" stroke-width="2" points="461.35,-189.71 468.78,-182.15 458.26,-183.43 461.35,-189.71"/>
</g>
<!-- 11 -->
<g id="node12" class="node">
<title>11</title>
<path fill="none" stroke="#568ad8" stroke-width="2" d="M424.88,-324C424.88,-324 290.38,-324 290.38,-324 284.38,-324 278.38,-318 278.38,-312 278.38,-312 278.38,-300 278.38,-300 278.38,-294 284.38,-288 290.38,-288 290.38,-288 424.88,-288 424.88,-288 430.88,-288 436.88,-294 436.88,-300 436.88,-300 436.88,-312 436.88,-312 436.88,-318 430.88,-324 424.88,-324"/>
<text text-anchor="middle" x="357.62" y="-302.12" font-family="sans" font-size="10.00">qiime2_phylogeny_unrooted_tree</text>
</g>
<!-- 11&#45;&gt;10 -->
<g id="edge13" class="edge">
<title>11&#45;&gt;10</title>
<path fill="none" stroke="grey" stroke-width="2" d="M359.64,-287.34C360.4,-280.75 361.27,-273.08 362.12,-265.67"/>
<polygon fill="grey" stroke="grey" stroke-width="2" points="365.58,-266.24 363.24,-255.91 358.62,-265.45 365.58,-266.24"/>
</g>
<!-- 12 -->
<g id="node13" class="node">
<title>12</title>
<path fill="none" stroke="#56d88a" stroke-width="2" d="M406.12,-396C406.12,-396 309.12,-396 309.12,-396 303.12,-396 297.12,-390 297.12,-384 297.12,-384 297.12,-372 297.12,-372 297.12,-366 303.12,-360 309.12,-360 309.12,-360 406.12,-360 406.12,-360 412.12,-360 418.12,-366 418.12,-372 418.12,-372 418.12,-384 418.12,-384 418.12,-390 412.12,-396 406.12,-396"/>
<text text-anchor="middle" x="357.62" y="-374.12" font-family="sans" font-size="10.00">qiime2_mask_alignment</text>
</g>
<!-- 12&#45;&gt;11 -->
<g id="edge14" class="edge">
<title>12&#45;&gt;11</title>
<path fill="none" stroke="grey" stroke-width="2" d="M357.62,-359.34C357.62,-352.75 357.62,-345.08 357.62,-337.67"/>
<polygon fill="grey" stroke="grey" stroke-width="2" points="361.13,-337.93 357.63,-327.93 354.13,-337.93 361.13,-337.93"/>
</g>
<!-- 13&#45;&gt;12 -->
<g id="edge15" class="edge">
<title>13&#45;&gt;12</title>
<path fill="none" stroke="grey" stroke-width="2" d="M357.62,-431.34C357.62,-424.75 357.62,-417.08 357.62,-409.67"/>
<polygon fill="grey" stroke="grey" stroke-width="2" points="361.13,-409.93 357.63,-399.93 354.13,-409.93 361.13,-409.93"/>
</g>
<!-- 14 -->
<g id="node15" class="node">
<title>14</title>
<path fill="none" stroke="#9fd856" stroke-width="2" d="M555.5,-252C555.5,-252 469.75,-252 469.75,-252 463.75,-252 457.75,-246 457.75,-240 457.75,-240 457.75,-228 457.75,-228 457.75,-222 463.75,-216 469.75,-216 469.75,-216 555.5,-216 555.5,-216 561.5,-216 567.5,-222 567.5,-228 567.5,-228 567.5,-240 567.5,-240 567.5,-246 561.5,-252 555.5,-252"/>
<text text-anchor="middle" x="512.62" y="-230.12" font-family="sans" font-size="10.00">qzv_metadata_to_tsv</text>
</g>
<!-- 14&#45;&gt;5 -->
<g id="edge8" class="edge">
<title>14&#45;&gt;5</title>
<path fill="none" stroke="grey" stroke-width="2" d="M476.68,-215.15C459.2,-206.47 437.94,-195.92 419.14,-186.59"/>
<polygon fill="grey" stroke="grey" stroke-width="2" points="420.73,-183.47 410.22,-182.16 417.62,-189.74 420.73,-183.47"/>
</g>
<!-- 14&#45;&gt;17 -->
<g id="edge20" class="edge">
<title>14&#45;&gt;17</title>
<path fill="none" stroke="grey" stroke-width="2" d="M511.36,-215.34C510.89,-208.75 510.34,-201.08 509.82,-193.67"/>
<polygon fill="grey" stroke="grey" stroke-width="2" points="513.32,-193.65 509.12,-183.92 506.34,-194.15 513.32,-193.65"/>
</g>
<!-- 15 -->
<g id="node16" class="node">
<title>15</title>
<path fill="none" stroke="#59d856" stroke-width="2" d="M572.25,-324C572.25,-324 467,-324 467,-324 461,-324 455,-318 455,-312 455,-312 455,-300 455,-300 455,-294 461,-288 467,-288 467,-288 572.25,-288 572.25,-288 578.25,-288 584.25,-294 584.25,-300 584.25,-300 584.25,-312 584.25,-312 584.25,-318 578.25,-324 572.25,-324"/>
<text text-anchor="middle" x="519.62" y="-302.12" font-family="sans" font-size="10.00">qiime2_validate_metadata</text>
</g>
<!-- 15&#45;&gt;14 -->
<g id="edge17" class="edge">
<title>15&#45;&gt;14</title>
<path fill="none" stroke="grey" stroke-width="2" d="M517.86,-287.34C517.2,-280.75 516.43,-273.08 515.69,-265.67"/>
<polygon fill="grey" stroke="grey" stroke-width="2" points="519.19,-265.52 514.72,-255.91 512.23,-266.21 519.19,-265.52"/>
</g>
<!-- 16 -->
<g id="node17" class="node">
<title>16</title>
<path fill="none" stroke="#78d856" stroke-width="2" d="M552,-396C552,-396 487.25,-396 487.25,-396 481.25,-396 475.25,-390 475.25,-384 475.25,-384 475.25,-372 475.25,-372 475.25,-366 481.25,-360 487.25,-360 487.25,-360 552,-360 552,-360 558,-360 564,-366 564,-372 564,-372 564,-384 564,-384 564,-390 558,-396 552,-396"/>
<text text-anchor="middle" x="519.62" y="-374.12" font-family="sans" font-size="10.00">import_metadata</text>
</g>
<!-- 16&#45;&gt;15 -->
<g id="edge18" class="edge">
<title>16&#45;&gt;15</title>
<path fill="none" stroke="grey" stroke-width="2" d="M519.62,-359.34C519.62,-352.75 519.62,-345.08 519.62,-337.67"/>
<polygon fill="grey" stroke="grey" stroke-width="2" points="523.13,-337.93 519.63,-327.93 516.13,-337.93 523.13,-337.93"/>
</g>
<!-- 17&#45;&gt;1 -->
<g id="edge3" class="edge">
<title>17&#45;&gt;1</title>
<path fill="none" stroke="grey" stroke-width="2" d="M447.5,-144.23C407.33,-133.03 354.75,-118.37 314.95,-107.27"/>
<polygon fill="grey" stroke="grey" stroke-width="2" points="316,-103.92 305.42,-104.61 314.12,-110.67 316,-103.92"/>
</g>
</g>
</svg>
