<?xml version="1.0" encoding="UTF-8" standalone="no"?>
<!DOCTYPE svg PUBLIC "-//W3C//DTD SVG 1.1//EN"
 "http://www.w3.org/Graphics/SVG/1.1/DTD/svg11.dtd">
<!-- Generated by graphviz version 9.0.0 (0)
 -->
<!-- Title: snakemake_dag Pages: 1 -->
<svg width="314pt" height="188pt"
 viewBox="0.00 0.00 314.38 188.00" xmlns="http://www.w3.org/2000/svg" xmlns:xlink="http://www.w3.org/1999/xlink">
<g id="graph0" class="graph" transform="scale(1 1) rotate(0) translate(4 184)">
<title>snakemake_dag</title>
<polygon fill="white" stroke="none" points="-4,4 -4,-184 310.38,-184 310.38,4 -4,4"/>
<!-- 0 -->
<g id="node1" class="node">
<title>0</title>
<path fill="none" stroke="#d85656" stroke-width="2" d="M169.25,-36C169.25,-36 139.25,-36 139.25,-36 133.25,-36 127.25,-30 127.25,-24 127.25,-24 127.25,-12 127.25,-12 127.25,-6 133.25,0 139.25,0 139.25,0 169.25,0 169.25,0 175.25,0 181.25,-6 181.25,-12 181.25,-12 181.25,-24 181.25,-24 181.25,-30 175.25,-36 169.25,-36"/>
<text text-anchor="middle" x="154.25" y="-14.12" font-family="sans" font-size="10.00">all</text>
</g>
<!-- 1 -->
<g id="node2" class="node">
<title>1</title>
<path fill="none" stroke="#88d856" stroke-width="2" d="M187.38,-108C187.38,-108 121.12,-108 121.12,-108 115.12,-108 109.12,-102 109.12,-96 109.12,-96 109.12,-84 109.12,-84 109.12,-78 115.12,-72 121.12,-72 121.12,-72 187.38,-72 187.38,-72 193.38,-72 199.38,-78 199.38,-84 199.38,-84 199.38,-96 199.38,-96 199.38,-102 193.38,-108 187.38,-108"/>
<text text-anchor="middle" x="154.25" y="-86.12" font-family="sans" font-size="10.00">render_bs4_book</text>
</g>
<!-- 1&#45;&gt;0 -->
<g id="edge1" class="edge">
<title>1&#45;&gt;0</title>
<path fill="none" stroke="grey" stroke-width="2" d="M154.25,-71.34C154.25,-64.75 154.25,-57.08 154.25,-49.67"/>
<polygon fill="grey" stroke="grey" stroke-width="2" points="157.75,-49.93 154.25,-39.93 150.75,-49.93 157.75,-49.93"/>
</g>
<!-- 2 -->
<g id="node3" class="node">
<title>2</title>
<path fill="none" stroke="#d8bc56" stroke-width="2" d="M86.5,-180C86.5,-180 12,-180 12,-180 6,-180 0,-174 0,-168 0,-168 0,-156 0,-156 0,-150 6,-144 12,-144 12,-144 86.5,-144 86.5,-144 92.5,-144 98.5,-150 98.5,-156 98.5,-156 98.5,-168 98.5,-168 98.5,-174 92.5,-180 86.5,-180"/>
<text text-anchor="middle" x="49.25" y="-158.12" font-family="sans" font-size="10.00">generate_rulegraph</text>
</g>
<!-- 2&#45;&gt;1 -->
<g id="edge2" class="edge">
<title>2&#45;&gt;1</title>
<path fill="none" stroke="grey" stroke-width="2" d="M76.02,-143.15C88.48,-134.84 103.52,-124.82 117.07,-115.79"/>
<polygon fill="grey" stroke="grey" stroke-width="2" points="118.63,-118.95 125.01,-110.49 114.75,-113.13 118.63,-118.95"/>
</g>
<!-- 3 -->
<g id="node4" class="node">
<title>3</title>
<path fill="none" stroke="#56c1d8" stroke-width="2" d="M179.88,-180C179.88,-180 128.62,-180 128.62,-180 122.62,-180 116.62,-174 116.62,-168 116.62,-168 116.62,-156 116.62,-156 116.62,-150 122.62,-144 128.62,-144 128.62,-144 179.88,-144 179.88,-144 185.88,-144 191.88,-150 191.88,-156 191.88,-156 191.88,-168 191.88,-168 191.88,-174 185.88,-180 179.88,-180"/>
<text text-anchor="middle" x="154.25" y="-158.12" font-family="sans" font-size="10.00">generate_tree</text>
</g>
<!-- 3&#45;&gt;1 -->
<g id="edge4" class="edge">
<title>3&#45;&gt;1</title>
<path fill="none" stroke="grey" stroke-width="2" d="M154.25,-143.34C154.25,-136.75 154.25,-129.08 154.25,-121.67"/>
<polygon fill="grey" stroke="grey" stroke-width="2" points="157.75,-121.93 154.25,-111.93 150.75,-121.93 157.75,-121.93"/>
</g>
<!-- 4 -->
<g id="node5" class="node">
<title>4</title>
<path fill="none" stroke="#56d88a" stroke-width="2" d="M294.38,-180C294.38,-180 222.12,-180 222.12,-180 216.12,-180 210.12,-174 210.12,-168 210.12,-168 210.12,-156 210.12,-156 210.12,-150 216.12,-144 222.12,-144 222.12,-144 294.38,-144 294.38,-144 300.38,-144 306.38,-150 306.38,-156 306.38,-156 306.38,-168 306.38,-168 306.38,-174 300.38,-180 294.38,-180"/>
<text text-anchor="middle" x="258.25" y="-158.12" font-family="sans" font-size="10.00">snakemake_report</text>
</g>
<!-- 4&#45;&gt;1 -->
<g id="edge3" class="edge">
<title>4&#45;&gt;1</title>
<path fill="none" stroke="grey" stroke-width="2" d="M231.74,-143.15C219.51,-134.93 204.79,-125.02 191.48,-116.06"/>
<polygon fill="grey" stroke="grey" stroke-width="2" points="193.48,-113.18 183.23,-110.5 189.57,-118.99 193.48,-113.18"/>
</g>
</g>
</svg>
